<?xml version="1.0" standalone="no"?>
<!DOCTYPE svg PUBLIC "-//W3C//DTD SVG 20010904//EN"
 "http://www.w3.org/TR/2001/REC-SVG-20010904/DTD/svg10.dtd">
<svg version="1.0" xmlns="http://www.w3.org/2000/svg"
 width="192.000000pt" height="94.000000pt" viewBox="0 0 192.000000 94.000000"
 preserveAspectRatio="xMidYMid meet">
<metadata>
Created by potrace 1.10, written by Peter Selinger 2001-2011
</metadata>
<g transform="translate(0.000000,94.000000) scale(0.100000,-0.100000)"
fill="#000000" stroke="none">
<path d="M840 931 c19 -5 26 -15 28 -37 l3 -31 -55 5 c-50 4 -56 2 -56 -14 0
-11 -3 -36 -6 -56 -8 -46 9 -51 25 -8 6 18 21 34 36 40 58 22 56 33 53 -252
l-3 -262 -25 -7 c-19 -5 -14 -7 23 -8 l47 -1 0 270 0 270 35 0 35 0 0 -270 0
-270 48 1 c36 1 41 3 22 8 l-25 7 -3 263 -2 264 32 -7 c34 -6 68 -38 68 -62 0
-8 5 -14 11 -14 8 0 9 11 5 31 -3 17 -6 43 -6 56 0 25 -2 25 -56 21 l-55 -5 3
31 c2 22 9 32 28 37 19 5 14 7 -22 8 l-48 1 0 -38 c0 -37 -1 -38 -35 -38 -34
1 -35 2 -35 39 l0 37 -47 -1 c-37 -1 -42 -3 -23 -8z"/>
<path d="M68 594 c-5 -4 -8 -16 -8 -27 0 -12 -11 -23 -30 -30 -33 -13 -42 -32
-10 -24 19 5 20 0 20 -88 0 -109 9 -125 71 -125 47 0 52 17 7 22 l-33 3 -3 96
-3 96 29 -5 c17 -2 33 1 36 7 5 7 -5 11 -28 11 -33 0 -35 2 -38 36 -2 20 -6
32 -10 28z"/>
<path d="M264 533 c-30 -6 -58 -39 -50 -58 8 -23 28 -14 44 18 24 48 72 29 72
-29 0 -30 -3 -33 -42 -39 -41 -7 -88 -43 -88 -67 0 -8 7 -24 16 -36 18 -26 75
-30 94 -7 7 8 16 15 21 15 5 0 9 -7 9 -15 0 -8 7 -15 15 -15 24 0 22 191 -2
213 -21 18 -58 27 -89 20z m66 -151 c0 -56 -63 -82 -81 -34 -11 28 20 62 56
62 21 0 25 -5 25 -28z"/>
<path d="M672 525 c-69 -30 -82 -144 -22 -197 83 -75 192 13 161 130 -18 65
-78 94 -139 67z m78 -25 c11 -11 20 -32 21 -47 4 -97 -13 -133 -61 -133 -40 0
-56 43 -52 133 2 30 33 67 57 67 8 0 24 -9 35 -20z"/>
<path d="M1134 524 c-39 -19 -54 -51 -54 -115 0 -42 5 -55 29 -80 67 -67 171
-15 171 85 0 52 -16 84 -52 106 -39 24 -53 24 -94 4z m81 -24 c25 -27 31 -97
12 -143 -13 -31 -21 -37 -46 -37 -40 0 -61 32 -61 93 0 91 50 137 95 87z"/>
<path d="M1348 532 c-41 -3 -50 -16 -18 -25 18 -5 20 -14 20 -86 0 -90 17
-121 65 -121 26 0 65 31 65 52 0 6 -11 1 -24 -11 -20 -19 -28 -21 -45 -12 -18
10 -21 22 -23 109 l-3 97 -37 -3z"/>
<path d="M1703 529 c-12 -4 -27 -17 -33 -28 -6 -12 -20 -21 -30 -21 -18 0 -20
-7 -20 -80 0 -73 -2 -80 -20 -80 -11 0 -20 -4 -20 -9 0 -6 18 -9 40 -8 l40 1
0 76 c0 87 14 115 57 115 17 0 29 6 31 16 4 21 -16 29 -45 18z"/>
<path d="M1798 525 c-56 -31 -47 -71 23 -115 55 -33 67 -53 49 -75 -21 -25
-66 -18 -89 13 l-20 27 -1 -31 c0 -36 13 -44 69 -44 51 0 81 23 81 63 0 41 -5
47 -62 80 -27 15 -48 34 -48 41 0 40 73 45 85 6 9 -28 23 -16 18 14 -4 17 -14
26 -35 30 -39 8 -38 8 -70 -9z"/>
<path d="M526 514 c-9 -8 -16 -20 -16 -25 0 -5 -10 -9 -22 -9 -22 0 -23 -3
-20 -72 3 -65 2 -73 -20 -90 l-23 -18 40 0 41 0 -4 63 c-3 43 1 75 12 101 14
35 18 37 46 31 26 -6 30 -4 30 14 0 26 -41 29 -64 5z"/>
<path d="M1488 448 c-5 -110 0 -150 19 -146 11 2 15 26 16 116 2 98 0 112 -14
112 -14 0 -18 -14 -21 -82z"/>
<path d="M405 185 c-20 -19 -25 -34 -25 -73 0 -80 52 -124 124 -106 23 5 26
11 26 50 0 31 5 46 18 53 13 7 7 10 -26 9 -30 0 -40 -4 -33 -12 5 -6 11 -29
13 -51 3 -35 0 -40 -19 -43 -14 -2 -32 6 -48 22 -20 21 -25 35 -25 79 0 29 5
58 12 65 21 21 75 15 92 -10 l16 -22 0 26 c0 18 -6 27 -22 32 -46 12 -79 6
-103 -19z"/>
<path d="M1398 203 c16 -6 17 -190 0 -195 -6 -2 6 -4 26 -4 25 0 32 3 21 8 -8
5 -15 20 -15 34 0 33 27 84 44 84 26 0 36 -89 12 -112 -11 -12 -8 -14 22 -14
19 0 30 2 23 4 -6 2 -11 27 -11 61 0 80 -28 103 -71 59 l-21 -23 4 53 c3 50 2
52 -22 51 -14 0 -19 -3 -12 -6z"/>
<path d="M602 138 c-23 -12 -25 -29 -4 -36 7 -2 12 4 12 13 0 26 44 15 48 -12
3 -18 -1 -23 -20 -23 -53 0 -76 -48 -36 -74 13 -8 23 -8 38 1 12 8 21 9 25 3
3 -6 14 -10 23 -9 11 0 12 3 5 6 -9 3 -13 26 -13 63 0 48 -4 61 -19 70 -24 12
-29 12 -59 -2z m58 -88 c0 -26 -34 -44 -49 -26 -9 11 -8 18 4 30 22 22 45 20
45 -4z"/>
<path d="M735 139 c-11 -4 -14 -8 -7 -8 16 -1 17 -118 1 -123 -7 -2 5 -4 25
-4 25 0 32 3 21 8 -17 10 -20 60 -5 89 6 10 20 19 30 19 21 0 27 15 9 25 -5 4
-19 -1 -29 -10 -15 -14 -19 -14 -22 -2 -2 10 -9 12 -23 6z"/>
<path d="M846 140 c-14 -4 -16 -9 -8 -14 19 -12 15 -103 -5 -115 -13 -7 -9 -9
19 -8 30 1 35 4 26 14 -6 7 -8 32 -6 56 7 56 -2 76 -26 67z"/>
<path d="M890 135 c-11 -13 -9 -15 15 -15 16 0 25 5 23 12 -7 19 -24 20 -38 3z"/>
<path d="M955 137 c-10 -8 -15 -19 -11 -25 10 -17 26 -15 26 4 0 25 44 13 48
-13 3 -18 -2 -23 -18 -23 -35 0 -60 -19 -60 -45 0 -29 41 -45 64 -26 10 8 16
9 21 1 3 -5 14 -10 23 -9 11 0 12 3 5 6 -9 3 -13 26 -13 63 0 48 -4 61 -19 70
-26 14 -44 13 -66 -3z m65 -81 c0 -8 -7 -22 -16 -31 -16 -15 -18 -15 -33 0
-15 15 -14 17 3 31 25 18 46 18 46 0z"/>
<path d="M1095 139 c-11 -4 -14 -8 -7 -8 16 -1 17 -118 1 -123 -7 -2 4 -4 24
-4 29 0 33 2 20 11 -12 9 -15 22 -11 51 8 56 -2 83 -27 73z"/>
<path d="M1146 134 c-22 -21 -20 -27 4 -12 10 7 21 10 24 7 11 -10 9 -111 -2
-118 -6 -4 5 -7 25 -7 20 0 31 2 25 4 -7 2 -12 27 -12 61 0 75 -27 103 -64 65z"/>
<path d="M1272 134 c-12 -8 -20 -20 -17 -25 9 -14 25 -11 25 6 0 9 9 15 25 15
20 0 25 -5 25 -25 0 -17 -5 -25 -18 -25 -24 0 -62 -28 -62 -46 0 -22 46 -40
64 -25 10 8 16 9 21 1 3 -5 16 -10 28 -10 20 1 20 2 5 11 -14 7 -18 23 -18 62
0 74 -28 96 -78 61z m58 -83 c0 -22 -25 -45 -40 -36 -14 9 -13 42 3 48 25 11
37 7 37 -12z"/>
</g>
</svg>
